<?xml version="1.0" encoding="UTF-8"?>
<svg xmlns="http://www.w3.org/2000/svg" id="Capa_1" data-name="Capa 1" viewBox="0 0 626.59 133.94">
  <defs>
    <style>.cls-1{fill:#fff;}.cls-2{fill:#00ee7e;}</style>
  </defs>
  <rect class="cls-1" x="50.96" y="50.96" width="31.2" height="31.2"></rect>
  <polygon class="cls-1" points="133.12 0 133.12 50.96 111.65 50.96 111.65 21.47 21.47 21.47 21.47 133.12 0 133.12 0 0 133.12 0"></polygon>
  <polygon class="cls-1" points="111.65 82.16 133.12 82.16 133.12 133.12 52.68 133.12 52.68 111.65 111.65 111.65 111.65 82.16"></polygon>
  <path class="cls-2" d="M825.8,569.59H814.11v26.76h-14v-69.7H825.8c16.77,0,25.16,9.49,25.16,21.57C851,558.8,843.77,569.59,825.8,569.59Zm-.6-11.29c7.89,0,11.38-3.89,11.38-10.08,0-6.39-3.49-10.19-11.38-10.19H814.11V558.3Z" transform="translate(-638.41 -463.11)"></path>
  <path class="cls-2" d="M887,526.65c16.77,0,25.16,9.68,25.16,21.37,0,8.49-4.69,17.07-15.87,20.07L913,596.35H896.78l-15.37-27.16h-6.59v27.16h-14v-69.7Zm-.5,11.58H874.82V558.7H886.5c7.79,0,11.28-4.09,11.28-10.38S894.29,538.23,886.5,538.23Z" transform="translate(-638.41 -463.11)"></path>
  <path class="cls-2" d="M957.19,597.05c-19.67,0-35.75-14.78-35.75-35.75s16.08-35.65,35.75-35.65c19.87,0,35.65,14.78,35.65,35.65S977,597.05,957.19,597.05Zm0-12.48c12.58,0,21.27-9.09,21.27-23.27s-8.69-23.07-21.27-23.07-21.37,8.89-21.37,23.07S944.51,584.57,957.19,584.57Z" transform="translate(-638.41 -463.11)"></path>
  <path class="cls-2" d="M1035.16,525.75c15.48,0,28.06,8.29,32.76,22.57h-16.08c-3.29-6.69-9.29-10-16.78-10-12.18,0-20.87,8.89-20.87,23.07s8.69,23.06,20.87,23.06c7.49,0,13.49-3.29,16.78-10.08h16.08c-4.7,14.38-17.28,22.57-32.76,22.57-20.07,0-35.34-14.68-35.34-35.55S1015.09,525.75,1035.16,525.75Z" transform="translate(-638.41 -463.11)"></path>
  <path class="cls-2" d="M1120.33,537.93h-26.46v17.48h23.46v11.08h-23.46V585h26.46v11.39h-40.45v-69.8h40.45Z" transform="translate(-638.41 -463.11)"></path>
  <path class="cls-2" d="M1159.16,526.65c16.78,0,25.17,9.68,25.17,21.37,0,8.49-4.7,17.07-15.88,20.07l16.68,28.26H1169l-15.38-27.16H1147v27.16h-14v-69.7Zm-.5,11.58H1147V558.7h11.68c7.79,0,11.29-4.09,11.29-10.38S1166.45,538.23,1158.66,538.23Z" transform="translate(-638.41 -463.11)"></path>
  <path class="cls-2" d="M1229.35,597.05c-19.67,0-35.75-14.78-35.75-35.75s16.08-35.65,35.75-35.65c19.87,0,35.65,14.78,35.65,35.65S1249.12,597.05,1229.35,597.05Zm0-12.48c12.58,0,21.27-9.09,21.27-23.27s-8.69-23.07-21.27-23.07S1208,547.12,1208,561.3,1216.67,584.57,1229.35,584.57Z" transform="translate(-638.41 -463.11)"></path>
</svg>
